<svg xmlns="http://www.w3.org/2000/svg" viewBox="0 0 471.2 417.8">
  <g id="Layer_2">
    <g id="Natron_Logo">
      <g id="Hexagon">
        <path
          d="M335.4,417.8H135.8a36.28,36.28,0,0,1-31.2-18L4.8,226.9a36.15,36.15,0,0,1,0-36L104.6,18A36.28,36.28,0,0,1,135.8,0H335.4a36.28,36.28,0,0,1,31.2,18l99.8,172.9a36.15,36.15,0,0,1,0,36L366.6,399.8A36.28,36.28,0,0,1,335.4,417.8ZM135.8,24a12,12,0,0,0-10.4,6L25.6,202.9a11.73,11.73,0,0,0,0,12l99.8,172.9a12,12,0,0,0,10.4,6H335.4a12,12,0,0,0,10.4-6l99.8-172.9a11.73,11.73,0,0,0,0-12L345.8,30a12,12,0,0,0-10.4-6Z"/>
      </g>
      <g id="N">
        <path
          d="M319.9,62.9v130a4,4,0,0,1-4,4h0a4,4,0,0,1-3.5-2L242.6,74.2a24.13,24.13,0,0,0-20.4-11.3H165.1a24.06,24.06,0,0,0-20.8,12l-70.4,122a23.94,23.94,0,0,0,0,24l77.4,134v-130a4,4,0,0,1,4-4h0a4.16,4.16,0,0,1,3.5,2l69.7,120.7a24.08,24.08,0,0,0,20.3,11.3H306a24.06,24.06,0,0,0,20.8-12l70.4-122a23.94,23.94,0,0,0,0-24Z"/>
      </g>
    </g>
  </g>
  <style>
    #Hexagon,#N {
      fill: #000;
    }
    @media (prefers-color-scheme: dark) {
      #Hexagon,#N {
        fill: #fff;
      }
    }
  </style>
</svg>