<svg xmlns="http://www.w3.org/2000/svg" xmlns:xlink="http://www.w3.org/1999/xlink" viewBox="0 0 88.67 77.79"><defs><style>.cls-1{fill:#d9d9f4;}.cls-2{fill:url(#linear-gradient);}.cls-3{fill:url(#linear-gradient-2);}.cls-4{fill:url(#linear-gradient-3);}.cls-5{fill:url(#linear-gradient-4);}.cls-6{fill:url(#linear-gradient-5);}</style><linearGradient id="linear-gradient" x1="18.93" y1="77.79" x2="18.93" y2="59.92" gradientUnits="userSpaceOnUse"><stop offset="0" stop-color="#7848ff"/><stop offset="1" stop-color="#9547d9"/></linearGradient><linearGradient id="linear-gradient-2" x1="18.93" y1="49.41" x2="18.93" y2="42.9" gradientUnits="userSpaceOnUse"><stop offset="0" stop-color="#a846c1"/><stop offset="1" stop-color="#b346b3"/></linearGradient><linearGradient id="linear-gradient-3" x1="18.93" y1="23.21" x2="18.93" y2="19.69" gradientUnits="userSpaceOnUse"><stop offset="0" stop-color="#d54488"/><stop offset="1" stop-color="#da4481"/></linearGradient><linearGradient id="linear-gradient-4" x1="69.73" y1="23.21" x2="69.73" y2="19.69" xlink:href="#linear-gradient-3"/><linearGradient id="linear-gradient-5" x1="69.73" y1="64.7" x2="69.73" y2="42.9" gradientUnits="userSpaceOnUse"><stop offset="0" stop-color="#8d47e4"/><stop offset="1" stop-color="#b346b3"/></linearGradient></defs><g id="Layer_2" data-name="Layer 2"><g id="Layer_1-2" data-name="Layer 1"><rect class="cls-1" width="4" height="77.79"/><rect class="cls-2" x="16.93" y="59.92" width="4" height="17.87"/><rect class="cls-3" x="16.93" y="42.9" width="4" height="6.52"/><rect class="cls-4" x="16.93" y="19.69" width="4" height="3.52"/><polygon class="cls-5" points="67.73 23.21 67.73 19.69 71.73 19.69 71.73 23.21 67.73 23.21"/><rect class="cls-6" x="67.73" y="42.9" width="4" height="21.8"/><rect class="cls-1" x="33.87" width="4" height="77.79"/><rect class="cls-1" x="50.8" width="4" height="77.79"/><rect class="cls-1" x="84.67" width="4" height="77.79"/><path class="cls-1" d="M26.57,19.69H11.3V0H26.57Zm-11.27-4h7.27V4H15.3Z"/><path class="cls-1" d="M26.57,42.9H11.3V23.21H26.57Zm-11.27-4h7.27V27.21H15.3Z"/><path class="cls-1" d="M77.37,19.69H62.1V0H77.37Zm-11.27-4h7.27V4H66.1Z"/><path class="cls-1" d="M77.37,42.9H62.1V23.21H77.37Zm-11.27-4h7.27V27.21H66.1Z"/><path class="cls-1" d="M18.93,61.29a7.64,7.64,0,1,1,7.64-7.63A7.64,7.64,0,0,1,18.93,61.29Zm0-11.27a3.64,3.64,0,1,0,3.64,3.64A3.64,3.64,0,0,0,18.93,50Z"/><path class="cls-1" d="M69.73,77.79a7.64,7.64,0,1,1,7.64-7.63A7.64,7.64,0,0,1,69.73,77.79Zm0-11.27a3.64,3.64,0,1,0,3.64,3.64A3.64,3.64,0,0,0,69.73,66.52Z"/></g></g></svg>
