<svg xmlns="http://www.w3.org/2000/svg" xmlns:xlink="http://www.w3.org/1999/xlink" viewBox="0 0 78.39 78.39"><defs><style>.cls-1{fill:#d9d9f4;}.cls-2{fill:url(#linear-gradient);}</style><linearGradient id="linear-gradient" y1="78.39" x2="37.55" y2="40.84" gradientUnits="userSpaceOnUse"><stop offset="0" stop-color="#7848ff"/><stop offset="1" stop-color="#fc4355"/></linearGradient></defs><g id="Layer_2" data-name="Layer 2"><g id="Layer_1-2" data-name="Layer 1"><path class="cls-1" d="M0,0V37.55H37.55V0ZM15.18,4h7.19v7.18H15.18Zm7.19,18.37H15.18V15.18h7.19ZM4,4h7.18v7.18H4ZM4,15.18h7.18v7.19H4Zm7.18,18.37H4V26.37h7.18Zm11.19,0H15.18V26.37h7.19Zm11.18,0H26.37V26.37h7.18Zm0-11.18H26.37V15.18h7.18ZM26.37,11.18V4h7.18v7.18Z"/><path class="cls-1" d="M40.84,0V37.55H78.39V0ZM56,4h7.18v7.18H56Zm7.18,18.37H56V15.18h7.18ZM44.84,4H52v7.18H44.84Zm0,11.18H52v7.19H44.84ZM52,33.55H44.84V26.37H52Zm11.18,0H56V26.37h7.18Zm11.18,0H67.21V26.37h7.18Zm0-11.18H67.21V15.18h7.18ZM67.21,11.18V4h7.18v7.18Z"/><path class="cls-2" d="M0,40.84V78.39H37.55V40.84Zm15.18,4h7.19V52H15.18Zm7.19,18.37H15.18V56h7.19ZM4,44.84h7.18V52H4ZM4,56h7.18v7.18H4Zm7.18,18.36H4V67.21h7.18Zm11.19,0H15.18V67.21h7.19Zm11.18,0H26.37V67.21h7.18Zm0-11.18H26.37V56h7.18ZM26.37,52V44.84h7.18V52Z"/><path class="cls-1" d="M40.84,40.84V78.39H78.39V40.84Zm15.19,4h7.18V52H56Zm7.18,18.37H56V56h7.18ZM44.84,44.84H52V52H44.84Zm0,11.19H52v7.18H44.84ZM52,74.39H44.84V67.21H52Zm11.18,0H56V67.21h7.18Zm11.18,0H67.21V67.21h7.18Zm0-11.18H67.21V56h7.18ZM67.21,52V44.84h7.18V52Z"/></g></g></svg>