<svg xmlns="http://www.w3.org/2000/svg" xmlns:xlink="http://www.w3.org/1999/xlink" viewBox="0 0 75.14 75.14"><defs><style>.cls-1{fill:#d9d9f4;}.cls-2{fill:url(#linear-gradient);}</style><linearGradient id="linear-gradient" x1="36.44" y1="19.35" x2="75.14" y2="19.35" gradientUnits="userSpaceOnUse"><stop offset="0" stop-color="#7848ff"/><stop offset="1" stop-color="#fc4355"/></linearGradient></defs><g id="Layer_2" data-name="Layer 2"><g id="Layer_1-2" data-name="Layer 1"><path class="cls-1" d="M44.11,16.45,12.52,48.05a19.91,19.91,0,0,0-4.74,8A16.79,16.79,0,0,1,4,62.51L1.78,64.72a6.11,6.11,0,0,0,8.64,8.63l2.21-2.21a15.35,15.35,0,0,1,6.48-3.92,19.24,19.24,0,0,0,8.16-4.92L58.69,31ZM53,31l-7.23,7.2a13.9,13.9,0,0,0-4.63-1.78,7.94,7.94,0,0,0-4.31.43,6.13,6.13,0,0,1-2.75.44,7.65,7.65,0,0,1-2.53-.78c-.42-.18-.87-.37-1.35-.54L44.11,22.11ZM24.45,59.47A15.32,15.32,0,0,1,18,63.39,19.36,19.36,0,0,0,9.8,68.31L7.59,70.52a2.1,2.1,0,1,1-3-3l2.26-2.26a20.81,20.81,0,0,0,4.74-8.12,16,16,0,0,1,3.78-6.35l10.7-10.7c1.44-.95,2.23-.63,3.89.09a11,11,0,0,0,3.89,1.1,10.23,10.23,0,0,0,4.27-.64,4,4,0,0,1,2.34-.28,9.27,9.27,0,0,1,2.35.78Z"/><path class="cls-2" d="M60.69,38.69,36.44,14.44,47.33,3.56,54,10.24l8-8A7.7,7.7,0,1,1,72.88,13.14l-8,8,6.68,6.68ZM42.1,14.44,60.69,33l5.23-5.23-6.68-6.68L70.06,10.31a3.7,3.7,0,0,0-5.23-5.23L54,15.89,47.33,9.21Z"/></g></g></svg>