<svg xmlns="http://www.w3.org/2000/svg" xmlns:xlink="http://www.w3.org/1999/xlink" viewBox="0 0 72.58 72.58"><defs><style>.cls-1{fill:url(#linear-gradient);}.cls-2{fill:#d9d9f4;}</style><linearGradient id="linear-gradient" x1="37.03" y1="35.55" x2="72.58" gradientUnits="userSpaceOnUse"><stop offset="0" stop-color="#7848ff"/><stop offset="1" stop-color="#fc4355"/></linearGradient></defs><g id="Layer_2" data-name="Layer 2"><g id="Layer_1-2" data-name="Layer 1"><path class="cls-1" d="M72.58,0H40.84V5.48H27.74V26.26h13.1v5.48h5.49v13.1H67.1V31.74h5.48ZM31.74,22.26V9.48h9.1V22.26ZM63.1,40.84H50.33v-9.1H63.1Zm5.48-13.1H44.84V4H68.58Z"/><path class="cls-2" d="M40.84,40.84v5.48h-9.1V40.84H26.26v-9.1h5.48V0H0V31.74H5.48v9.1H0V72.58H31.74V67.1h9.1v5.48H72.58V40.84ZM4,27.74V4H27.74V27.74Zm5.48,4H22.26v9.1H9.48ZM27.74,68.58H4V44.84H27.74Zm4-5.48V50.32h9.1V63.1Zm36.84,5.48H44.84V44.84H68.58Z"/></g></g></svg>