<svg xmlns="http://www.w3.org/2000/svg" xmlns:xlink="http://www.w3.org/1999/xlink" viewBox="0 0 88.66 74.33"><defs><style>.cls-1{fill:url(#linear-gradient);}.cls-2{fill:#d9d9f4;}</style><linearGradient id="linear-gradient" x1="44.33" y1="68.45" x2="44.33" y2="5.88" gradientUnits="userSpaceOnUse"><stop offset="0" stop-color="#7848ff"/><stop offset="1" stop-color="#fc4355"/></linearGradient></defs><g id="Layer_2" data-name="Layer 2"><g id="Layer_1-2" data-name="Layer 1"><path class="cls-1" d="M88.66,68.45h-2c-22.18,0-33.25-15.31-43.95-30.11C32.13,23.7,22.14,9.88,2,9.88H0v-4H2C24.19,5.88,35.25,21.19,46,36,56.53,50.63,66.52,64.45,86.66,64.45h2Z"/><polygon class="cls-2" points="4 5.88 4 0 0 0 0 9.88 46.33 9.88 46.33 5.88 4 5.88"/><polygon class="cls-2" points="42.33 64.45 42.33 68.45 84.66 68.45 84.66 74.33 88.66 74.33 88.66 64.45 42.33 64.45"/></g></g></svg>