<svg xmlns="http://www.w3.org/2000/svg" xmlns:xlink="http://www.w3.org/1999/xlink" viewBox="0 0 84.67 84.66"><defs><style>.cls-1{fill:#d9d9f4;}.cls-2{fill:url(#linear-gradient);}.cls-3{fill:url(#linear-gradient-2);}</style><linearGradient id="linear-gradient" x1="26.22" y1="58.44" x2="58.44" y2="26.22" gradientUnits="userSpaceOnUse"><stop offset="0" stop-color="#7848ff"/><stop offset="1" stop-color="#fc4355"/></linearGradient><linearGradient id="linear-gradient-2" x1="39.83" y1="44.83" x2="44.83" y2="39.83" gradientUnits="userSpaceOnUse"><stop offset="0" stop-color="#a246c8"/><stop offset="1" stop-color="#e14478"/></linearGradient></defs><g id="Layer_2" data-name="Layer 2"><g id="Layer_1-2" data-name="Layer 1"><path class="cls-1" d="M84.66,40.33h-5V5.06H44.33V0h-4V5.06H5.06V40.33H0v4H5.06V79.61H40.33v5h4v-5H79.61V44.33h5.06v-4Zm-9,35.28H9.06V9.06H75.61Z"/><path class="cls-2" d="M58.44,40.33V26.22H44.33v-7h-4v7H26.22V40.33h-7v4h7V58.44H40.33V65.5h4V58.44H58.44V44.33H65.5v-4Zm-4,14.11H30.22V30.22H54.44Z"/><rect class="cls-3" x="39.83" y="39.83" width="5" height="5"/></g></g></svg>