<svg xmlns="http://www.w3.org/2000/svg" viewBox="0 0 2239.01 419.73"><defs><style>.cls-1{fill:none;stroke:#fff;stroke-miterlimit:10;stroke-width:26px;}.cls-2{fill:#fff;}</style></defs><g id="Layer_2" data-name="Layer 2"><g id="Layer_1-2" data-name="Layer 1"><path id="Hexagon" class="cls-1" d="M336.41,13H136.8A24,24,0,0,0,116,25L16.22,197.86a24,24,0,0,0,0,24L116,394.73a24,24,0,0,0,20.78,12H336.41a24,24,0,0,0,20.78-12L457,221.86a24,24,0,0,0,0-24L357.19,25A24,24,0,0,0,336.41,13Z"/><path id="N" class="cls-2" d="M320.9,63.86v130a4.05,4.05,0,0,1-4,4h0a4.06,4.06,0,0,1-3.54-2L243.65,75.16a24,24,0,0,0-20.36-11.3H166.17a24,24,0,0,0-20.79,12L75,197.86a24,24,0,0,0,0,24l77.36,134v-130a4,4,0,0,1,4-4h0a4,4,0,0,1,3.5,2l69.7,120.73a24,24,0,0,0,20.34,11.25H307a24,24,0,0,0,20.79-12l70.43-122a24,24,0,0,0,0-24Z"/><path class="cls-2" d="M627.92,148.7v162H582.08v-223h45.84l165.8,163.39V87.69h45.85v223H793.72Z"/><path class="cls-2" d="M976.75,87.69h49.64l105.82,223h-50l-22.06-48.6H943.66l-22.06,48.6H872Zm65.84,136.16-41-90-40.67,90Z"/><path class="cls-2" d="M1344.88,87.69V126h-94.44V310.71h-45.85V126H1109.8V87.69Z"/><path class="cls-2" d="M1378.31,87.69h151.32c51.36,0,85.49,20.68,85.49,67.56,0,37.23-24.13,52.74-55.84,58.26,34.47,2.75,51,12.41,51,44.12v53.08h-45.84v-50c0-25.51-10.69-32.4-53.77-32.4h-86.52v82.38h-45.85Zm151.32,104.79c25.86,0,39.64-13.1,39.64-34.47,0-20.34-13.78-31-39.64-31H1424.16v65.49Z"/><path class="cls-2" d="M1654.76,199.37c0-72.73,52-116.16,141-116.16,89.27,0,141,43.43,141,116.16,0,72.39-51.71,115.82-141,115.82C1706.81,315.19,1654.76,271.76,1654.76,199.37Zm234,0c0-51.7-38.26-76.52-93.06-76.52s-94.11,24.82-94.11,76.52c0,51.36,39.3,76.18,94.11,76.18S1888.8,250.73,1888.8,199.37Z"/><path class="cls-2" d="M2027.37,148.7v162h-45.84v-223h45.84l165.8,163.39V87.69H2239v223h-45.84Z"/></g></g></svg>