<?xml version="1.0" encoding="utf-8"?>
<!-- Generator: Adobe Illustrator 25.2.3, SVG Export Plug-In . SVG Version: 6.00 Build 0)  -->
<svg version="1.1" id="Layer_1" xmlns="http://www.w3.org/2000/svg" xmlns:xlink="http://www.w3.org/1999/xlink" x="0px" y="0px"
	 viewBox="0 0 170.7 32" style="enable-background:new 0 0 170.7 32;" xml:space="preserve">
<style type="text/css">
	.st0{fill:#ffffff;}
</style>
<path class="st0" d="M47.9,11.3v12.3h-3.5v-17h3.5l12.6,12.5V6.7H64v17h-3.5L47.9,11.3z"/>
<path class="st0" d="M74.5,6.7h3.8l8.1,17h-3.8L80.8,20h-8.9l-1.7,3.7h-3.8L74.5,6.7z M79.5,17.1l-3.1-6.9l-3.1,6.9H79.5z"/>
<path class="st0" d="M102.5,6.7v2.9h-7.2v14.1h-3.5V9.6h-7.2V6.7H102.5z"/>
<path class="st0" d="M105.1,6.7h11.5c3.9,0,6.5,1.6,6.5,5.2c0,2.8-1.8,4-4.3,4.4c2.6,0.2,3.9,0.9,3.9,3.4v4h-3.5v-3.8
	c0-1.9-0.8-2.5-4.1-2.5h-6.6v6.3h-3.5V6.7z M116.6,14.7c2,0,3-1,3-2.6c0-1.6-1.1-2.4-3-2.4h-8v5H116.6z"/>
<path class="st0" d="M126.2,15.2c0-5.5,4-8.9,10.7-8.9c6.8,0,10.7,3.3,10.7,8.9c0,5.5-3.9,8.8-10.7,8.8
	C130.1,24,126.2,20.7,126.2,15.2z M144,15.2c0-3.9-2.9-5.8-7.1-5.8s-7.2,1.9-7.2,5.8c0,3.9,3,5.8,7.2,5.8S144,19.1,144,15.2z"/>
<path class="st0" d="M154.6,11.3v12.3h-3.5v-17h3.5l12.6,12.5V6.7h3.5v17h-3.5L154.6,11.3z"/>
<path class="st0" d="M25.6,32H10.4c-1,0-1.9-0.5-2.4-1.4L0.4,17.4c-0.5-0.9-0.5-2,0-2.8L8,1.4C8.5,0.5,9.4,0,10.4,0h15.2
	c1,0,1.9,0.5,2.4,1.4l7.6,13.2c0.5,0.9,0.5,2,0,2.8l-7.6,13.2C27.6,31.5,26.7,32,25.6,32z M10.4,2c-0.3,0-0.6,0.2-0.7,0.4L2.1,15.6
	c-0.1,0.3-0.1,0.6,0,0.8l7.6,13.2c0.1,0.3,0.4,0.4,0.7,0.4h15.2c0.3,0,0.6-0.2,0.7-0.4L34,16.4c0.1-0.3,0.1-0.6,0-0.8L26.4,2.4
	C26.2,2.1,25.9,2,25.6,2H10.4z"/>
<path id="logo-n" class="st0" d="M24.5,4.9v9.9c0,0.2-0.1,0.3-0.3,0.3l0,0c-0.1,0-0.2-0.1-0.3-0.2l-5.3-9.2
	c-0.3-0.5-0.9-0.9-1.6-0.9h-4.4c-0.7,0-1.3,0.3-1.6,0.9l-5.4,9.3c-0.3,0.6-0.3,1.3,0,1.8l5.9,10.2v-9.9c0-0.2,0.1-0.3,0.3-0.3l0,0
	c0.1,0,0.2,0.1,0.3,0.2l5.3,9.2c0.3,0.5,0.9,0.9,1.6,0.9h4.4c0.7,0,1.3-0.3,1.6-0.9l5.4-9.3c0.3-0.6,0.3-1.3,0-1.8L24.5,4.9z"/>
</svg>
